<svg width="190" height="190" viewBox="0 0 190 190" fill="none" xmlns="http://www.w3.org/2000/svg">
<path d="M95 0C147.467 0 190 42.5329 190 95C190 147.467 147.467 190 95 190C42.5329 190 0 147.467 0 95C0 42.5329 42.5329 0 95 0ZM42.6123 62.4131C35.9196 80.5386 31.6946 101.68 31 124.602C31.0991 127.484 31.2679 130.332 31.5068 133.141L66.168 142.662C67.6441 137.996 68.9993 133.156 70.2295 128.161C70.2474 128.167 70.2653 128.173 70.2832 128.18C63.6076 125.844 57.678 122.551 52.8213 118.547H57.7803C67.1013 125.034 79.8449 129.1 93.998 129.1C108.151 129.1 120.895 125.034 130.216 118.547H135.175C130.562 122.349 124.982 125.51 118.715 127.818C119.979 133.001 121.379 138.016 122.907 142.847L157.568 133.325C157.807 130.516 157.976 127.669 158.075 124.786C157.381 101.865 153.156 80.7232 146.463 62.5977L111.391 47.1846C111.29 49.2951 111.211 51.42 111.154 53.5586C111.194 53.5682 111.234 53.5782 111.274 53.5879C105.841 52.2748 100.033 51.5625 93.998 51.5625C88.5577 51.5625 83.3022 52.1421 78.3389 53.2178L77.918 53.3096C77.8611 51.1928 77.7842 49.0894 77.6846 47L42.6123 62.4131ZM52.707 118.452C52.5199 118.297 52.3343 118.141 52.1504 117.983C52.3343 118.141 52.5199 118.297 52.707 118.452ZM51.9502 117.811C51.73 117.62 51.5113 117.429 51.2959 117.235C51.5113 117.429 51.73 117.62 51.9502 117.811ZM51.1641 117.115C50.9706 116.94 50.7793 116.764 50.5898 116.586C50.7793 116.764 50.9707 116.94 51.1641 117.115ZM50.4404 116.445C50.2185 116.235 49.9986 116.025 49.7822 115.812C49.9986 116.025 50.2185 116.235 50.4404 116.445ZM71.334 81.7637C78.4865 81.7637 84.2851 87.7733 84.2852 95.1865C84.2852 102.6 78.4865 108.609 71.334 108.609C64.1815 108.609 58.3828 102.6 58.3828 95.1865C58.3829 87.7734 64.1815 81.7637 71.334 81.7637ZM116.662 81.7637C123.815 81.7638 129.612 87.7734 129.612 95.1865C129.612 102.6 123.815 108.609 116.662 108.609C109.51 108.609 103.711 102.6 103.711 95.1865C103.711 87.7733 109.51 81.7637 116.662 81.7637ZM43.5488 107.95C43.4182 107.732 43.2876 107.514 43.1621 107.293L43.1318 107.238C43.2672 107.477 43.4074 107.714 43.5488 107.95Z" fill="#12B1A6"/>
</svg>
