<svg width="190" height="190" viewBox="0 0 190 190" fill="none" xmlns="http://www.w3.org/2000/svg">
<path d="M95 0C147.467 0 190 42.5329 190 95C190 147.467 147.467 190 95 190C42.5329 190 0 147.467 0 95C0 42.5329 42.5329 0 95 0ZM134.01 121.253C129.479 117.254 122.525 117.633 118.48 122.098C114.436 126.563 114.831 133.424 119.361 137.423C119.543 137.583 119.729 137.734 119.918 137.88C120.864 138.992 121.904 140.057 123.039 141.059C134.492 151.167 151.156 151.218 160.257 141.172C160.804 140.568 161.311 139.94 161.778 139.294C156.281 140.575 150.505 140.362 145.123 138.62C144.206 137.963 143.255 137.199 142.264 136.323C140.024 134.347 138.545 132.068 137.677 129.632C137.717 128.027 137.398 126.419 136.729 124.934C136.711 124.665 136.699 124.394 136.692 124.124C136.586 124.153 136.481 124.184 136.376 124.217C135.785 123.13 134.996 122.123 134.01 121.253ZM102.259 121.518C104.624 123.603 106.977 125.662 109.311 127.694L123.502 112.028C121.196 109.965 118.86 107.888 116.497 105.8L102.259 121.518ZM97.252 117.083C97.9192 117.677 98.5879 118.273 99.2598 118.869L113.497 103.153C112.822 102.561 112.148 101.971 111.476 101.383L97.252 117.083ZM48.5742 48.5527C40.9674 41.7316 32.26 39.0352 29.126 42.5303C29.1102 42.5479 29.0945 42.5661 29.0791 42.584C28.9935 42.5782 28.9105 42.5733 28.8301 42.5693C28.8444 42.6557 28.8607 42.7456 28.8779 42.8379C26.2013 46.4964 29.8328 54.5805 37.2246 61.209C38.8036 62.6249 40.4318 63.8614 42.0459 64.9033C55.754 78.9311 73.8223 96.1294 94.2676 114.421L108.463 98.752C87.8406 80.7972 68.5742 65.0366 52.9521 53.167C51.7011 51.6 50.2323 50.0396 48.5742 48.5527Z" fill="#12B1A6"/>
</svg>
